<svg viewBox="0 0 1700 396" xmlns="http://www.w3.org/2000/svg"><g fill="#575b79"><path d="m0 187.1c1-7.1 1.7-14.2 3.1-21.1 16.2-82.3 64.4-136.5 144.8-159 104.4-29.2 213.5 34.4 241.3 139.2 29.8 112.4-39.9 221.5-149.5 245.3-108 23.6-214.3-46.7-235.6-155.4-1.4-7.2-2-14.5-3-21.7-.3-1.8-.7-3.5-1.1-5.3 0-7.3 0-14.7 0-22zm281.2 31.3c-3.7-5.5-6.7-10.8-10.5-15.4s-8.1-8.9-12.9-12.5c-17.8-13.7-37.7-23.2-59.7-27.7-18.7-3.8-36.8-8.8-53.7-17.9-21.4-11.4-38.7-28.1-56.2-44.5-1.2-1.1-2.4-2.2-4.3-3.9-.5 4.7-1.1 8.5-1.1 12.3-.1 16.5-.5 33 0 49.4.6 24.1 4.6 47.6 12 70.6 6.1 18.9 14.7 36.4 27.5 51.7 21.8 26 49.8 38.9 83.7 40.1 22.6.8 42.5-4.2 59-20.4 8.7-8.6 8.8-8.5 3.7-19.4-.8-1.7-1.6-3.3-2.4-4.9-16.4-30.3-41.3-51.9-71.2-68.1-10.4-5.6-21.3-10.3-33.1-16 53.1 11.4 96.8 33.9 119.2 86.4 14.5-11 23.2-24.9 26.8-42.1 1.4 15.8-3.5 29.4-15.3 40.7 11.5 1.4 21.6-5.3 25.8-16 3.4-8.6 3.3-17.6 2.8-26.6-.5-9.1.5-17.9 4.4-26.3 1.8-4 3.5-8 5.6-13-19.2 4.4-36.2 10.6-50 23.5z"/><path d="m1419.8 145.3c-4.1 12.4-8 24-11.9 35.7-7.7 23.4-15.5 46.7-23.1 70.1-1.2 3.6-2.8 5.1-6.7 4.8-5.3-.4-10.7-.4-16 0-3.8.3-5.6-1-6.8-4.6-5.8-17.3-12-34.6-18-51.8-.7-2-1.6-4-2.8-7.2-2.5 6.9-4.6 12.6-6.6 18.3-4.8 13.7-9.5 27.3-14.1 41-1.1 3.2-2.5 4.5-6 4.3-5.8-.3-11.7-.2-17.5 0-2.9 0-4.4-.7-5.4-3.7-11.3-34.4-22.8-68.7-34.2-103.1-.3-1.1-.4-2.2-.6-3.7 9.6 0 18.9.1 28.3 0 3.8 0 3.7 2.9 4.3 5 5.5 17.8 10.8 35.6 16.2 53.5.4 1.2.9 2.4 1.9 5 2.4-7.1 4.5-13 6.5-18.9 4.5-13.6 9-27.1 13.3-40.7 1-3.3 2.8-4.4 6.1-4.3 5.5.2 11 .3 16.5 0 3.6-.2 5.3 1.2 6.4 4.6 5.9 18.3 12.1 36.6 18.2 54.8.3 1 .8 2 1.8 4.4 1.9-5.9 3.4-10.5 4.8-15.1 4.4-14.6 8.9-29.3 13.1-44 .9-3.3 2.4-4.5 5.9-4.3 8.5.3 17 0 26.5 0z"/><path d="m771.6 145.3c10 0 19.7-.1 29.3.1 1.3 0 3 1.8 3.9 3.1 7.2 11.4 14.2 22.9 21.3 34.4.8 1.4 1.8 2.7 3.2 4.7 2.1-3.4 3.9-6.1 5.6-8.9 6.2-10.1 12.5-20.1 18.5-30.2 1.4-2.4 3-3.5 5.9-3.4 7.7.2 15.3.3 23 0 4.2-.2 5 1.6 5 5.3-.1 15.3 0 30.7 0 46 0 17.5-.1 35 0 52.5 0 4.3-.8 6.4-5.8 6-6.1-.5-12.3-.4-18.5 0-4.4.3-5.3-1.5-5.3-5.5.2-16.8 0-33.7 0-50.5 0-1.9-.2-3.8-1.6-6-9 13.7-18 27.4-27.4 41.8-9.3-14.2-18.3-27.8-27.3-41.5l-1.2.3v60.8h-28.7v-109.1z"/><path d="m1176.3 201.4v-55.7h29v109.1c-8.1 0-16.2.2-24.3-.1-1.4 0-3-1.8-4-3.2-13.6-17.3-27.1-34.6-40.6-52-1-1.3-2.1-2.5-4.3-3.6v58.6h-29.5v-109.2c8.9 0 17.7-.1 26.5.2 1.4 0 2.9 1.9 4 3.2 12.9 16.5 25.8 33.1 38.7 49.6 1 1.2 2.1 2.4 3.1 3.6.4-.2.8-.4 1.3-.5z"/><path d="m935.9 200.1c0-32.7 25.6-56.8 59.7-57 31.8-.2 59.4 24.6 58.3 58.7-.9 30.1-26.5 56-61.2 55.1-31.7-.8-56.9-25.3-56.8-56.8zm30.8-.3c0 17.2 12.4 30.4 28.5 30.4 15.9 0 28.2-13.1 28.2-30.1s-12.6-30.3-28.6-30.3-28 12.8-28 30z"/><path d="m631.6 254.8v-109.2c1.8-.1 3.4-.3 5.1-.3 25.7 0 51.3 0 77-.1 4.4 0 5.9 1.3 5.6 5.6-.3 5.1-.2 10.3 0 15.5.1 3.5-1.2 4.5-4.7 4.5-16-.2-32 .1-48-.2-4.8 0-5.9 1.5-5.8 6 .5 12.7-2 11.2 11 11.3h35q6.9 0 6.9 6.7c0 3.8-.3 7.7 0 11.5.4 4.4-1.5 5.3-5.5 5.3-13.7-.2-27.3 0-41-.2-4.8 0-6.8 1-6.6 6.3.4 11.9 0 11.9 11.8 11.9h43c3.4 0 4.8.9 4.7 4.5-.2 5.8 0 11.7 0 17.5 0 2.4-.9 3.6-3.5 3.6-28.2 0-56.3 0-85.1 0z"/><path d="m1567 254.8c-10.3 0-20 0-29.8-.1-1 0-2.4-1.6-2.9-2.7-2-4.4-3.5-9-5.7-13.3-.9-1.6-3.2-3.5-4.9-3.6-11.8-.3-23.7-.3-35.5 0-.9 0-1.8.5-2.7 1.2s-1.7 1.5-2.4 2.3c-1 1.2-1.3 3-1.9 4.6-.1-.2-3.8 10.3-4.1 10.8s-13 1-13.3.8h-18.6c4.6-10.9 8.9-20.9 13.1-31 10.6-25.1 21.3-50.2 31.8-75.4 1.3-3.1 2.8-4.3 6.2-4.1 7 .3 14-.1 21 .2 1.7 0 4.1 1.5 4.7 3 14.9 34.7 29.5 69.5 44.2 104.3.3.7.4 1.5.9 3zm-60.3-73.5-1.5.2c-3.9 9.9-7.8 19.8-11.8 30.1h25.3c-4.2-10.6-8.1-20.5-11.9-30.4z"/><path d="m1586.2 145.3c11.3 0 21.6-.1 31.9.2 1.4 0 3.2 2 4.1 3.5 6 10.2 11.7 20.5 17.5 30.8.9 1.5 1.8 3 3.2 5.5 1.8-2.9 3-5 4.2-7.1 5.6-9.8 11.2-19.7 16.9-29.5.8-1.4 2.5-3.2 3.8-3.2 10.1-.3 20.2-.1 31.2-.1-1.2 2.2-2 3.8-2.9 5.3-11.9 19.5-23.9 38.9-35.6 58.4-1.6 2.7-2.6 6.1-2.6 9.3-.3 12-.1 23.9-.1 36.5-9.5 0-18.4.1-27.3-.2-.9 0-2.4-2.8-2.5-4.3-.2-10.3 0-20.7-.2-31-.1-3.3-1.1-7-2.7-9.8-11.7-19.8-23.8-39.3-35.7-59-.9-1.4-1.7-2.8-3.1-5.2z"/><path d="m587.5 228.3v26.1h-82.9v-109c9.2 0 18.3-.1 27.4.2.8 0 2.1 3 2.1 4.6.2 14 .1 28 .1 42v30c0 1.9.3 3.9.4 6.2h52.9z"/></g></svg>