<svg xmlns:xlink="http://www.w3.org/1999/xlink" xmlns="http://www.w3.org/2000/svg" aria-hidden="true" data-testid="cart" height="2.4" width="2.4"><defs><symbol id="cart" viewBox="0 0 32 32">
    <path d="M7.87346716,6.00792906 C7.91490805,6.00269648 7.95713913,6 8,6 L29,6 C29.5522847,6 30,6.44771525 30,7 L30,18 C30,18.4888666 29.6465483,18.9060717 29.1643274,18.9864059 L11.1643274,21.9850631 C10.6599078,22.0690954 10.1733621,21.7590323 10.0364872,21.2663196 L5.31809996,4.28139257 L3.31622777,4.9486833 C2.79228445,5.12333107 2.22596447,4.84017108 2.0513167,4.31622777 C1.87666893,3.79228445 2.15982892,3.22596447 2.68377223,3.0513167 L5.68377223,2.0513167 C6.22663087,1.87036382 6.81035011,2.1809932 6.96351276,2.7323376 L7.87346716,6.00792906 Z M8.42686148,8 L11.7227919,19.8644643 L28,17.1528106 L28,8 L8.42686148,8 Z M16,29 C14.3431458,29 13,27.6568542 13,26 C13,24.3431458 14.3431458,23 16,23 C17.6568542,23 19,24.3431458 19,26 C19,27.6568542 17.6568542,29 16,29 Z M16,27 C16.5522847,27 17,26.5522847 17,26 C17,25.4477153 16.5522847,25 16,25 C15.4477153,25 15,25.4477153 15,26 C15,26.5522847 15.4477153,27 16,27 Z M25,29 C23.3431458,29 22,27.6568542 22,26 C22,24.3431458 23.3431458,23 25,23 C26.6568542,23 28,24.3431458 28,26 C28,27.6568542 26.6568542,29 25,29 Z M25,27 C25.5522847,27 26,26.5522847 26,26 C26,25.4477153 25.5522847,25 25,25 C24.4477153,25 24,25.4477153 24,26 C24,26.5522847 24.4477153,27 25,27 Z"></path>
  </symbol></defs><use xlink:href="#cart"></use></svg>