<svg xmlns:xlink="http://www.w3.org/1999/xlink" xmlns="http://www.w3.org/2000/svg" aria-hidden="true" data-testid="pickup-store" height="2.4" width="2.4"><defs><symbol id="pickup-store" viewBox="0 0 32 32" fill="currentColor">
    <path d="M25.2612276,15.4603605 L25.2612276,15.8971619 L25.5891632,15.8971619 L25.5891632,15.1883183 L26.0886893,15.8971619 L26.3764034,15.8971619 L26.3764034,14.6248285 L26.0487921,14.6248285 L26.0487921,15.3313907 L25.5570509,14.6248285 L25.2612276,14.6248285 L25.2612276,15.0577812 C25.2293012,14.9577294 25.17231,14.8653799 25.0918429,14.7867381 C24.9659883,14.6645237 24.8028314,14.5980391 24.6305922,14.5980391 C24.4470001,14.5980391 24.2874113,14.6609388 24.1605836,14.7851086 C24.0331071,14.9089525 23.9646656,15.0712533 23.9646656,15.2475679 C23.9646656,15.3870682 23.9982319,15.5097059 24.0645822,15.6157428 L23.770564,15.6157428 L23.770564,14.6249914 L23.444899,14.6249914 L23.444899,15.8969989 L24.1523446,15.8969989 L24.1523446,15.7273293 C24.2788022,15.8573897 24.4402775,15.9241468 24.628646,15.9241468 C24.80867,15.9241468 24.9792873,15.8537513 25.1044932,15.724367 C25.1779843,15.6493461 25.2308729,15.5599304 25.2612276,15.4603605 L25.2612276,15.4603605 Z M18.8163034,15.3916385 L18.8163034,15.8967056 L19.5445086,15.8967056 L19.5445086,15.6177309 L19.1439147,15.6177309 L19.1439147,15.3869901 L19.490988,15.3866642 L19.490988,15.1132298 L19.1439147,15.1135557 L19.1439147,14.9056283 L19.5445086,14.9053024 L19.5445086,14.6253499 L18.8163034,14.6253499 L18.8163034,15.1348796 C18.8228471,15.1767919 18.8261642,15.2208849 18.8261642,15.267057 C18.8261642,15.3103157 18.8228652,15.3518599 18.8163034,15.3916385 L18.8163034,15.3916385 Z M26,26.4184189 L28,26.1327046 L28,13 L16,13 L16,27.8469903 L18,27.561276 L18,22 C18,21.4477153 18.4477153,21 19,21 L25,21 C25.5522847,21 26,21.4477153 26,22 L26,26.4184189 L26,26.4184189 Z M24,26.7041332 L24,23 L20,23 L20,27.2755617 L24,26.7041332 L24,26.7041332 Z M13,8 L13,4 L9.41421356,4 L5.41421356,8 L13,8 L13,8 Z M15,8 L22.5791154,8 L18.5634904,4 L15,4 L15,8 Z M2.29289322,8.29289322 L8.29289322,2.29289322 C8.4804296,2.10535684 8.73478351,2 9,2 L18.9765625,2 C19.2411036,2 19.4948665,2.10482239 19.6822896,2.29151619 L25.7057271,8.29151619 C25.8875021,8.47258832 26,8.72315652 26,9 L26,11 L29,11 C29.5522847,11 30,11.4477153 30,12 L30,27 C30,27.4976504 29.6340701,27.9195711 29.1414214,27.9899495 L15.1414214,29.9899495 C14.5389882,30.0760114 14,29.6085493 14,29 L14,27 L3,27 C2.44771525,27 2,26.5522847 2,26 L2,9 C2,8.72385763 2.11192881,8.47385763 2.29289322,8.29289322 Z M24,11 L24,10 L4,10 L4,25 L14,25 L14,12 C14,11.4477153 14.4477153,11 15,11 L24,11 Z M17,16.5 L17,14 L27,14 L27,16.5 L17,16.5 Z M21.0398432,14.623753 C21.0398432,14.623753 20.6184897,15.3407441 20.577295,15.4052733 C20.5292886,15.4812092 20.4245179,15.6014682 20.2665509,15.5998387 C20.009003,15.5956019 19.9120171,15.4179836 19.9120171,15.2579643 C19.9120171,15.0764351 20.056685,14.9203266 20.2461157,14.9167417 C20.4598739,14.9125049 20.6194628,15.1171733 20.6194628,15.1171733 L20.7865121,14.8476498 C20.7865121,14.8476498 20.5970814,14.5905107 20.2493594,14.5983324 C19.7255057,14.610065 19.573053,15.0487332 19.573053,15.252098 C19.573053,15.6803372 19.9029348,15.8941309 20.1721599,15.9202033 C20.5597791,15.9576824 20.7719155,15.7044542 20.7719155,15.7044542 C20.7719155,15.7044542 20.7693206,15.7038024 20.7826197,15.7034765 C20.8607923,15.7028247 21.0667657,15.7044542 21.0667657,15.7044542 L21.0667657,15.8951087 L21.3820509,15.8951087 L21.3820509,14.623753 L21.0398432,14.623753 Z M21.704894,15.8973248 L22.0321809,15.8973248 L22.0321809,14.928735 L22.2861607,14.928735 L22.2861607,14.6246655 L21.4505898,14.6246655 L21.4505898,14.928735 L21.704894,14.928735 L21.704894,15.8973248 Z M23.0175771,15.4103575 L23.0175771,15.8972596 L23.3451884,15.8972596 L23.3451884,14.6249263 L23.0175771,14.6249263 L23.0175771,15.1079176 L22.6808836,15.1079176 L22.6808836,14.6249263 L22.3535967,14.6249263 L22.3535967,15.8972596 L22.6808836,15.8972596 L22.6808836,15.4103575 L23.0175771,15.4103575 Z M18.8163034,15.3916385 L18.8163034,15.1348796 C18.7931942,14.986864 18.7298446,14.8660449 18.6302462,14.7768958 C18.4910925,14.6517483 18.3428565,14.625024 18.1300714,14.625024 L17.6727131,14.625024 L17.6727131,15.8970315 L18.1748341,15.8970315 C18.3629673,15.8970315 18.4891463,15.8719368 18.631868,15.7396194 C18.7315661,15.6462785 18.7935501,15.5295738 18.8163034,15.3916385 L18.8163034,15.3916385 Z M24.628646,15.6070412 C24.4508926,15.6070412 24.2893575,15.4528881 24.2893575,15.2511528 C24.2893575,15.0640833 24.4401884,14.9144929 24.6325384,14.9144929 C24.8138599,14.9144929 24.9646908,15.0640833 24.9646908,15.2511528 C24.9646908,15.4597321 24.8138599,15.6070412 24.628646,15.6070412 Z M21.0735774,15.4385157 L20.9045819,15.4385157 L21.0735774,15.1504156 L21.0735774,15.4385157 Z M18.5004992,15.2566281 C18.5004992,15.5069231 18.382105,15.6177309 18.1313689,15.6177309 L18,15.6177309 L18,14.8984584 L18.1300714,14.8984584 C18.3707521,14.8984584 18.5004992,15.0275168 18.5004992,15.2566281 Z"></path>
  </symbol></defs><use xlink:href="#pickup-store"></use></svg>