<svg xmlns:xlink="http://www.w3.org/1999/xlink" xmlns="http://www.w3.org/2000/svg" aria-hidden="true" data-testid="exchange-return" height="2.4" width="2.4"><defs><symbol id="exchange-return" viewBox="0 0 32 32" fill="currentColor">
    <path d="M20,4.86851709 L20,9.13148291 L23.1972244,7 L20,4.86851709 Z M18,8.23698722 L6,10.8084158 L6,20 C6,20.5522847 5.55228475,21 5,21 C4.44771525,21 4,20.5522847 4,20 L4,10 C4,9.52846222 4.32940013,9.12099847 4.79047091,9.02219759 L18,6.19158421 L18,3 C18,2.20130462 18.8901455,1.72491322 19.5547002,2.16794971 L25.5547002,6.16794971 C26.1484333,6.56377175 26.1484333,7.43622825 25.5547002,7.83205029 L19.5547002,11.8320503 C18.8901455,12.2750868 18,11.7986954 18,11 L18,8.23698722 L18,8.23698722 Z M14,23.7613757 L26.0002069,21.1899028 L26.0002069,11.9983186 C26.0002069,11.4460338 26.4479222,10.9983186 27.0002069,10.9983186 C27.5524917,10.9983186 28.0002069,11.4460338 28.0002069,11.9983186 L28.0002069,21.9983186 C28.0002069,22.4698564 27.6708068,22.8773201 27.209736,22.976121 L14,25.8067787 L14,29 C14,29.7986954 13.1098545,30.2750868 12.4452998,29.8320503 L6.4452998,25.8320503 C5.85156673,25.4362282 5.85156673,24.5637718 6.4452998,24.1679497 L12.4452998,20.1679497 C13.1098545,19.7249132 14,20.2013046 14,21 L14,23.7613757 Z M12,22.8685171 L8.80277564,25 L12,27.1314829 L12,22.8685171 Z"></path>
  </symbol></defs><use xlink:href="#exchange-return"></use></svg>